<?xml version="1.0" encoding="UTF-8"?><svg id="Calque_2" xmlns="http://www.w3.org/2000/svg" viewBox="0 0 800 571.43"><defs><style>.cls-1{fill:#141312;stroke-width:0px;}
@media (prefers-color-scheme: dark) {
    .cls-1{fill:#F7F5F3;
} (</style></defs><g id="Final"><g id="Base_E_black"><g id="Base_E"><path id="Outer" class="cls-1" d="M400,39.44L55.22,285.71l344.78,246.28,344.79-246.28L400,39.44ZM68.24,285.71L400,48.74l331.77,236.97-331.77,236.98L68.24,285.71ZM400,39.44L55.22,285.71l344.78,246.28,344.79-246.28L400,39.44ZM68.24,285.71L400,48.74l331.77,236.97-331.77,236.98L68.24,285.71ZM400,39.44L55.22,285.71l344.78,246.28,344.79-246.28L400,39.44ZM68.24,285.71L400,48.74l331.77,236.97-331.77,236.98L68.24,285.71ZM400,39.44L55.22,285.71l344.78,246.28,344.79-246.28L400,39.44ZM68.24,285.71L400,48.74l331.77,236.97-331.77,236.98L68.24,285.71ZM400,0L0,285.71l400,285.71,400-285.71L400,0ZM21.07,285.71L400,15.05l378.93,270.66-378.93,270.67L21.07,285.71ZM400,39.44L55.22,285.71l344.78,246.28,344.79-246.28L400,39.44ZM68.24,285.71L400,48.74l331.77,236.97-331.77,236.98L68.24,285.71ZM400,39.44L55.22,285.71l344.78,246.28,344.79-246.28L400,39.44ZM68.24,285.71L400,48.74l331.77,236.97-331.77,236.98L68.24,285.71ZM400,39.44L55.22,285.71l344.78,246.28,344.79-246.28L400,39.44ZM68.24,285.71L400,48.74l331.77,236.97-331.77,236.98L68.24,285.71ZM400,39.44L55.22,285.71l344.78,246.28,344.79-246.28L400,39.44ZM68.24,285.71L400,48.74l331.77,236.97-331.77,236.98L68.24,285.71ZM400,39.44L55.22,285.71l344.78,246.28,344.79-246.28L400,39.44ZM68.24,285.71L400,48.74l331.77,236.97-331.77,236.98L68.24,285.71Z"/><path id="Inner" class="cls-1" d="M400,39.44L55.22,285.71l344.78,246.28,344.79-246.28L400,39.44ZM68.24,285.71L400,48.74l331.77,236.97-331.77,236.98L68.24,285.71Z"/><path class="cls-1" d="M400,48.74L68.24,285.71l331.76,236.98,331.77-236.98L400,48.74ZM385.16,471.61L124.08,285.66c21.17-15.1,49.6-15.1,70.77.02l121.74,86.95c7.74,5.53,18.48,0,18.48-9.51v-51.42c0-6.47-5.24-11.7-11.71-11.69h-.86c-20.5.04-37.15-16.55-37.17-37.05h0s38.07-.03,38.07-.03c6.45,0,11.68-5.24,11.68-11.69l-.02-44.35c0-9.5-10.75-15.03-18.48-9.51l-70.66,50.46h0c-17.06-12.19-17.06-37.54,0-49.73l139.24-99.46v372.97ZM414.66,98.64l139.24,99.46c17.06,12.19,17.06,37.54,0,49.73h0s-70.66-50.46-70.66-50.46c-7.74-5.52-18.48,0-18.48,9.51l-.02,44.35c0,6.45,5.23,11.69,11.68,11.69l38.07.03h0c-.03,20.5-16.67,37.09-37.17,37.05h-.86c-6.47-.01-11.71,5.22-11.71,11.69v51.42c0,9.51,10.75,15.04,18.49,9.51l121.74-86.95c21.17-15.12,49.59-15.13,70.77-.02l-261.08,185.95V98.64Z"/></g></g></g></svg>